<svg width="231" height="975" viewBox="0 0 231 975" fill="none" xmlns="http://www.w3.org/2000/svg">
<path d="M126.5 1C121.5 5.5 95.2743 35.8352 91.8964 54.3089C87.86 76.3846 129.038 107.493 95.8078 128.497C82.5754 136.861 91.64 159.158 91.64 171.52C91.64 183.138 79.7016 181.745 71.0633 190.309C39.0358 222.06 100.384 189.158 101.939 216.316C104.048 253.145 7.18918 197.177 64.8862 207.368C70.308 208.326 103.234 227.131 106.828 220.994C117.454 202.844 61.8413 204.017 61.4333 228.667C61.0253 253.316 82.3459 239.142 87.3964 250.35C94.5239 266.167 88.6836 280.535 73.9853 292.151C60.6289 302.707 26.6721 287.048 28.5036 302.329C29.6786 312.133 41.5226 313.202 49.8645 320.169M140.649 928.96C140.649 928.96 125.637 980.38 134.898 967.385C193.368 885.332 87.35 976.384 106.144 971.338C142.41 961.602 115.897 918.01 128.189 948.124C156.945 1018.57 164.612 918.153 99.9123 935.364C90.7703 937.796 243.689 984.596 108.539 954.577C96.4204 951.885 128.307 956.428 140.649 954.577C188.139 947.453 261.963 881.129 214.933 872.124C197.668 868.818 187.57 877.336 169.883 876.526C78.228 872.333 78.9656 774.79 71.0633 698.412C64.2746 632.798 107.867 599.207 113.331 533.506C116.016 501.228 132.791 478.631 113.331 450.653C95.2554 424.663 3.23924 423.621 35.2132 409.827C52.2692 402.469 69.3683 399.823 84.3707 409.827C105.677 424.033 83.0887 446.628 71.0633 467.063C39.2693 521.092 -28.2322 368.288 15.0845 320.169C44.1515 287.88 102.83 252.436 131.542 284.947C149.317 305.074 152.951 331.501 131.542 348.988C116.859 360.981 101.281 360.356 80.7422 360.356C60.2038 360.356 34.3217 365.746 29.9424 348.988C26.6245 336.291 42.0844 331.424 49.8645 320.169C40.3359 333.953 67.8667 356.946 84.3707 348.988C96.4526 343.162 100.592 330.26 93.6167 320.169C85.0735 307.811 58.4077 307.811 49.8645 320.169" stroke="#D5567D" style="stroke:#D5567D;stroke:color(display-p3 0.8353 0.3373 0.4902);stroke-opacity:1;" stroke-width="2" stroke-linecap="round" stroke-linejoin="round"/>
</svg>
